<?xml version="1.0" standalone="no"?>

<svg version="1.0" xmlns="http://www.w3.org/2000/svg"
 width="512.000000pt" height="512.000000pt" viewBox="0 0 512.000000 512.000000"
 preserveAspectRatio="xMidYMid meet">
<metadata>
Created by potrace 1.16, written by Peter Selinger 2001-2019
</metadata>
<g transform="translate(0.000000,512.000000) scale(0.100000,-0.100000)"
fill="#000000" stroke="none">
<path d="M2456 5105 c-11 -8 -28 -27 -38 -42 -16 -26 -18 -56 -18 -379 0 -348
0 -351 23 -385 12 -19 38 -42 57 -51 70 -35 154 -13 197 51 23 34 23 37 23
385 0 323 -2 353 -18 379 -32 48 -51 56 -132 56 -50 0 -81 -4 -94 -14z"/>
<path d="M745 4465 c-76 -27 -116 -106 -94 -187 9 -37 45 -77 238 -271 124
-126 241 -237 259 -249 43 -26 119 -27 164 -1 69 40 93 145 50 215 -12 18
-123 135 -249 259 -187 186 -235 229 -268 238 -49 13 -51 13 -100 -4z"/>
<path d="M4250 4468 c-26 -7 -95 -70 -263 -236 -126 -125 -237 -242 -249 -260
-26 -43 -27 -119 -1 -164 40 -69 145 -93 215 -50 18 12 135 123 259 249 193
194 229 234 238 271 13 46 3 100 -24 140 -33 45 -113 69 -175 50z"/>
<path d="M2300 4000 c-695 -123 -1200 -724 -1200 -1430 0 -803 647 -1450 1450
-1450 708 0 1311 508 1430 1205 135 789 -396 1540 -1185 1675 -150 26 -349 26
-495 0z m570 -337 c397 -117 683 -419 793 -837 31 -118 31 -394 0 -512 -95
-358 -319 -633 -636 -779 -78 -36 -216 -79 -284 -90 l-43 -7 0 1132 0 1132 43
-7 c23 -4 80 -18 127 -32z"/>
<path d="M57 2702 c-48 -32 -56 -51 -56 -132 0 -81 8 -100 56 -132 26 -16 56
-18 379 -18 348 0 351 0 385 23 90 60 90 194 0 254 -34 23 -37 23 -385 23
-323 0 -353 -2 -379 -18z"/>
<path d="M4279 2697 c-19 -12 -42 -38 -51 -57 -35 -70 -13 -154 51 -197 34
-23 37 -23 385 -23 327 0 353 1 380 19 46 31 66 69 66 131 0 62 -20 100 -66
131 -27 18 -53 19 -380 19 -348 0 -351 0 -385 -23z"/>
<path d="M1194 1400 c-49 -11 -73 -32 -310 -272 -189 -189 -224 -229 -233
-265 -32 -120 72 -224 192 -192 36 9 76 45 270 238 126 124 237 241 249 259
26 43 27 119 1 164 -31 54 -103 83 -169 68z"/>
<path d="M3833 1400 c-75 -17 -115 -70 -115 -151 0 -31 7 -60 20 -81 12 -18
123 -135 249 -259 194 -193 234 -229 271 -238 119 -32 223 72 191 192 -9 36
-45 76 -238 270 -124 126 -239 236 -256 246 -38 23 -81 30 -122 21z"/>
<path d="M2480 892 c-19 -9 -45 -32 -57 -51 -23 -34 -23 -37 -23 -385 0 -327
1 -353 19 -380 31 -46 69 -66 131 -66 62 0 100 20 131 66 18 27 19 53 19 380
0 348 0 351 -23 385 -27 41 -79 69 -127 69 -19 0 -51 -8 -70 -18z"/>
</g>
</svg>
